<?xml version="1.0" encoding="us-ascii" standalone="no"?><svg xmlns="http://www.w3.org/2000/svg" xmlns:xlink="http://www.w3.org/1999/xlink" contentStyleType="text/css" height="479px" preserveAspectRatio="none" style="width:924px;height:479px;background:#FFFFFF;" version="1.1" viewBox="0 0 924 479" width="924px" zoomAndPan="magnify"><defs/><g><!--cluster user_repo--><g id="cluster_user_repo"><path d="M681,279 L755,279 A3.75,3.75 0 0 1 757.5,281.5 L764.5,301.4883 L891,301.4883 A2.5,2.5 0 0 1 893.5,303.9883 L893.5,469.5 A2.5,2.5 0 0 1 891,472 L681,472 A2.5,2.5 0 0 1 678.5,469.5 L678.5,281.5 A2.5,2.5 0 0 1 681,279 " fill="none" style="stroke:#000000;stroke-width:1.5;"/><line style="stroke:#000000;stroke-width:1.5;" x1="678.5" x2="764.5" y1="301.4883" y2="301.4883"/><text fill="#000000" font-family="sans-serif" font-size="14" font-weight="bold" lengthAdjust="spacing" textLength="73" x="682.5" y="294.5352">User Repo</text></g><!--cluster session_repo--><g id="cluster_session_repo"><path d="M8.5,6 L105.5,6 A3.75,3.75 0 0 1 108,8.5 L115,28.4883 L914.5,28.4883 A2.5,2.5 0 0 1 917,30.9883 L917,252.5 A2.5,2.5 0 0 1 914.5,255 L8.5,255 A2.5,2.5 0 0 1 6,252.5 L6,8.5 A2.5,2.5 0 0 1 8.5,6 " fill="none" style="stroke:#000000;stroke-width:1.5;"/><line style="stroke:#000000;stroke-width:1.5;" x1="6" x2="115" y1="28.4883" y2="28.4883"/><text fill="#000000" font-family="sans-serif" font-size="14" font-weight="bold" lengthAdjust="spacing" textLength="96" x="10" y="21.5352">Session Repo</text></g><!--class users--><g id="elem_users"><rect codeLine="10" fill="#F1F1F1" height="141.418" id="users" rx="2.5" ry="2.5" style="stroke:#181818;stroke-width:0.5;" width="183" x="694.5" y="314.29"/><text fill="#000000" font-family="sans-serif" font-size="14" lengthAdjust="spacing" textLength="37" x="767.5" y="332.8252">users</text><line style="stroke:#181818;stroke-width:0.5;" x1="695.5" x2="876.5" y1="340.7783" y2="340.7783"/><text fill="#000000" font-family="sans-serif" font-size="14" lengthAdjust="spacing" textLength="74" x="700.5" y="358.3134">id: int &#171;PK&#187;</text><line style="stroke:#181818;stroke-width:1.0;" x1="695.5" x2="876.5" y1="365.2666" y2="365.2666"/><text fill="#000000" font-family="sans-serif" font-size="14" lengthAdjust="spacing" textLength="116" x="700.5" y="382.8017">username: string</text><text fill="#000000" font-family="sans-serif" font-size="14" lengthAdjust="spacing" textLength="141" x="700.5" y="399.29">display_name: string</text><text fill="#000000" font-family="sans-serif" font-size="14" lengthAdjust="spacing" textLength="140" x="700.5" y="415.7783">spotify_token: string</text><text fill="#000000" font-family="sans-serif" font-size="14" lengthAdjust="spacing" textLength="171" x="700.5" y="432.2666">hashed_password: string</text><text fill="#000000" font-family="sans-serif" font-size="14" lengthAdjust="spacing" textLength="100" x="700.5" y="448.7548">is_admin: bool</text></g><!--class sessions--><g id="elem_sessions"><rect codeLine="22" fill="#F1F1F1" height="174.3945" id="sessions" rx="2.5" ry="2.5" style="stroke:#181818;stroke-width:0.5;" width="230" x="671" y="40.8"/><text fill="#000000" font-family="sans-serif" font-size="14" lengthAdjust="spacing" textLength="58" x="757" y="59.3352">sessions</text><line style="stroke:#181818;stroke-width:0.5;" x1="672" x2="900" y1="67.2883" y2="67.2883"/><text fill="#000000" font-family="sans-serif" font-size="14" lengthAdjust="spacing" textLength="74" x="677" y="84.8234">id: int &#171;PK&#187;</text><line style="stroke:#181818;stroke-width:1.0;" x1="672" x2="900" y1="91.7766" y2="91.7766"/><text fill="#000000" font-family="sans-serif" font-size="14" lengthAdjust="spacing" textLength="86" x="677" y="109.3117">name: string</text><text fill="#000000" font-family="sans-serif" font-size="14" lengthAdjust="spacing" textLength="100" x="677" y="125.8">created_by: int</text><text fill="#000000" font-family="sans-serif" font-size="14" lengthAdjust="spacing" textLength="97" x="677" y="142.2883">created_at: int</text><text fill="#000000" font-family="sans-serif" font-size="14" lengthAdjust="spacing" textLength="148" x="677" y="158.7766">max_submissions: int</text><text fill="#000000" font-family="sans-serif" font-size="14" lengthAdjust="spacing" textLength="77" x="677" y="175.2648">start_at: int</text><text fill="#000000" font-family="sans-serif" font-size="14" lengthAdjust="spacing" textLength="218" x="677" y="191.7531">submission_phase_duration: int</text><text fill="#000000" font-family="sans-serif" font-size="14" lengthAdjust="spacing" textLength="169" x="677" y="208.2414">vote_phase_duration: int</text></g><!--class players--><g id="elem_players"><rect codeLine="34" fill="#F1F1F1" height="91.9531" id="players" rx="2.5" ry="2.5" style="stroke:#181818;stroke-width:0.5;" width="144" x="467" y="147.02"/><text fill="#000000" font-family="sans-serif" font-size="14" lengthAdjust="spacing" textLength="49" x="514.5" y="165.5552">players</text><line style="stroke:#181818;stroke-width:0.5;" x1="468" x2="610" y1="173.5083" y2="173.5083"/><text fill="#000000" font-family="sans-serif" font-size="14" lengthAdjust="spacing" textLength="132" x="473" y="191.0434">session_id: int &#171;FK&#187;</text><text fill="#000000" font-family="sans-serif" font-size="14" lengthAdjust="spacing" textLength="123" x="473" y="207.5317">player_id: int &#171;FK&#187;</text><line style="stroke:#181818;stroke-width:1.0;" x1="468" x2="610" y1="214.4848" y2="214.4848"/><text fill="#000000" font-family="sans-serif" font-size="14" lengthAdjust="spacing" textLength="116" x="473" y="232.02">playlist_id: string</text></g><!--class candidates--><g id="elem_candidates"><rect codeLine="44" fill="#F1F1F1" height="124.9297" id="candidates" rx="2.5" ry="2.5" style="stroke:#181818;stroke-width:0.5;" width="165" x="242" y="77.54"/><text fill="#000000" font-family="sans-serif" font-size="14" lengthAdjust="spacing" textLength="74" x="287.5" y="96.0752">candidates</text><line style="stroke:#181818;stroke-width:0.5;" x1="243" x2="406" y1="104.0283" y2="104.0283"/><text fill="#000000" font-family="sans-serif" font-size="14" lengthAdjust="spacing" textLength="74" x="248" y="121.5634">id: int &#171;PK&#187;</text><line style="stroke:#181818;stroke-width:1.0;" x1="243" x2="406" y1="128.5166" y2="128.5166"/><text fill="#000000" font-family="sans-serif" font-size="14" lengthAdjust="spacing" textLength="153" x="248" y="146.0517">nominator_id: int &#171;FK&#187;</text><text fill="#000000" font-family="sans-serif" font-size="14" lengthAdjust="spacing" textLength="132" x="248" y="162.54">session_id: int &#171;FK&#187;</text><text fill="#000000" font-family="sans-serif" font-size="14" lengthAdjust="spacing" textLength="102" x="248" y="179.0283">track_id: string</text><text fill="#000000" font-family="sans-serif" font-size="14" lengthAdjust="spacing" textLength="62" x="248" y="195.5166">votes: int</text></g><!--class votes--><g id="elem_votes"><rect codeLine="56" fill="#F1F1F1" height="91.9531" id="votes" rx="2.5" ry="2.5" style="stroke:#181818;stroke-width:0.5;" width="160" x="22" y="94.02"/><text fill="#000000" font-family="sans-serif" font-size="14" lengthAdjust="spacing" textLength="36" x="84" y="112.5552">votes</text><line style="stroke:#181818;stroke-width:0.5;" x1="23" x2="181" y1="120.5083" y2="120.5083"/><text fill="#000000" font-family="sans-serif" font-size="14" lengthAdjust="spacing" textLength="132" x="28" y="138.0434">session_id: int &#171;FK&#187;</text><text fill="#000000" font-family="sans-serif" font-size="14" lengthAdjust="spacing" textLength="116" x="28" y="154.5317">voter_id: int &#171;FK&#187;</text><text fill="#000000" font-family="sans-serif" font-size="14" lengthAdjust="spacing" textLength="148" x="28" y="171.02">candidate_id: int &#171;FK&#187;</text><line style="stroke:#181818;stroke-width:1.0;" x1="23" x2="181" y1="177.9731" y2="177.9731"/></g><!--link players to users--><g id="link_players_users"><path codeLine="41" d="M629.44,227.09 C702.32,227.09 786,227.09 786,227.09 C786,227.09 786,263.98 786,305.9 " fill="none" id="players-users" style="stroke:#181818;stroke-width:1.0;"/><line style="stroke:#181818;stroke-width:1.0;" x1="619.44" x2="611.44" y1="227.09" y2="233.09"/><line style="stroke:#181818;stroke-width:1.0;" x1="619.44" x2="611.44" y1="227.09" y2="221.09"/><line style="stroke:#181818;stroke-width:1.0;" x1="619.44" x2="611.44" y1="227.09" y2="227.09"/><ellipse cx="625.44" cy="227.09" fill="none" rx="4" ry="4" style="stroke:#181818;stroke-width:1.0;"/><line style="stroke:#181818;stroke-width:1.0;" x1="790" x2="782" y1="309.9" y2="309.9"/><line style="stroke:#181818;stroke-width:1.0;" x1="790" x2="782" y1="306.9" y2="306.9"/><line style="stroke:#181818;stroke-width:1.0;" x1="786" x2="786" y1="305.9" y2="313.9"/></g><!--link players to sessions--><g id="link_players_sessions"><path codeLine="42" d="M629.44,181.11 C648.09,181.11 642.62,181.11 662.85,181.11 " fill="none" id="players-sessions" style="stroke:#181818;stroke-width:1.0;"/><line style="stroke:#181818;stroke-width:1.0;" x1="619.44" x2="611.44" y1="181.11" y2="187.11"/><line style="stroke:#181818;stroke-width:1.0;" x1="619.44" x2="611.44" y1="181.11" y2="175.11"/><line style="stroke:#181818;stroke-width:1.0;" x1="619.44" x2="611.44" y1="181.11" y2="181.11"/><ellipse cx="625.44" cy="181.11" fill="none" rx="4" ry="4" style="stroke:#181818;stroke-width:1.0;"/><line style="stroke:#181818;stroke-width:1.0;" x1="666.85" x2="666.85" y1="177.11" y2="185.11"/><line style="stroke:#181818;stroke-width:1.0;" x1="663.85" x2="663.85" y1="177.11" y2="185.11"/><line style="stroke:#181818;stroke-width:1.0;" x1="662.85" x2="670.85" y1="181.11" y2="181.11"/></g><!--link candidates to players--><g id="link_candidates_players"><path codeLine="53" d="M425.43,174.74 C445,174.74 439.71,174.74 458.77,174.74 " fill="none" id="candidates-players" style="stroke:#181818;stroke-width:1.0;"/><line style="stroke:#181818;stroke-width:1.0;" x1="415.43" x2="407.43" y1="174.74" y2="180.74"/><line style="stroke:#181818;stroke-width:1.0;" x1="415.43" x2="407.43" y1="174.74" y2="168.74"/><line style="stroke:#181818;stroke-width:1.0;" x1="415.43" x2="407.43" y1="174.74" y2="174.74"/><ellipse cx="421.43" cy="174.74" fill="none" rx="4" ry="4" style="stroke:#181818;stroke-width:1.0;"/><line style="stroke:#181818;stroke-width:1.0;" x1="462.77" x2="462.77" y1="170.74" y2="178.74"/><line style="stroke:#181818;stroke-width:1.0;" x1="459.77" x2="459.77" y1="170.74" y2="178.74"/><line style="stroke:#181818;stroke-width:1.0;" x1="458.77" x2="466.77" y1="174.74" y2="174.74"/></g><!--link candidates to sessions--><g id="link_candidates_sessions"><path codeLine="54" d="M425.27,112.28 C498.68,112.28 580.64,112.28 662.54,112.28 " fill="none" id="candidates-sessions" style="stroke:#181818;stroke-width:1.0;"/><line style="stroke:#181818;stroke-width:1.0;" x1="415.27" x2="407.27" y1="112.28" y2="118.28"/><line style="stroke:#181818;stroke-width:1.0;" x1="415.27" x2="407.27" y1="112.28" y2="106.28"/><line style="stroke:#181818;stroke-width:1.0;" x1="415.27" x2="407.27" y1="112.28" y2="112.28"/><ellipse cx="421.27" cy="112.28" fill="none" rx="4" ry="4" style="stroke:#181818;stroke-width:1.0;"/><line style="stroke:#181818;stroke-width:1.0;" x1="666.54" x2="666.54" y1="108.28" y2="116.28"/><line style="stroke:#181818;stroke-width:1.0;" x1="663.54" x2="663.54" y1="108.28" y2="116.28"/><line style="stroke:#181818;stroke-width:1.0;" x1="662.54" x2="670.54" y1="112.28" y2="112.28"/></g><!--link votes to players--><g id="link_votes_players"><path codeLine="63" d="M102,204.02 C102,222.15 102,220.72 102,220.72 C102,220.72 334.72,220.72 458.84,220.72 " fill="none" id="votes-players" style="stroke:#181818;stroke-width:1.0;"/><line style="stroke:#181818;stroke-width:1.0;" x1="102" x2="96" y1="194.02" y2="186.02"/><line style="stroke:#181818;stroke-width:1.0;" x1="102" x2="108" y1="194.02" y2="186.02"/><line style="stroke:#181818;stroke-width:1.0;" x1="102" x2="102" y1="194.02" y2="186.02"/><ellipse cx="102" cy="200.02" fill="none" rx="4" ry="4" style="stroke:#181818;stroke-width:1.0;"/><line style="stroke:#181818;stroke-width:1.0;" x1="462.84" x2="462.84" y1="216.72" y2="224.72"/><line style="stroke:#181818;stroke-width:1.0;" x1="459.84" x2="459.84" y1="216.72" y2="224.72"/><line style="stroke:#181818;stroke-width:1.0;" x1="458.84" x2="466.84" y1="220.72" y2="220.72"/></g><!--link votes to candidates--><g id="link_votes_candidates"><path codeLine="64" d="M200.33,140 C219.62,140 214.26,140 233.67,140 " fill="none" id="votes-candidates" style="stroke:#181818;stroke-width:1.0;"/><line style="stroke:#181818;stroke-width:1.0;" x1="190.33" x2="182.33" y1="140" y2="146"/><line style="stroke:#181818;stroke-width:1.0;" x1="190.33" x2="182.33" y1="140" y2="134"/><line style="stroke:#181818;stroke-width:1.0;" x1="190.33" x2="182.33" y1="140" y2="140"/><ellipse cx="196.33" cy="140" fill="none" rx="4" ry="4" style="stroke:#181818;stroke-width:1.0;"/><line style="stroke:#181818;stroke-width:1.0;" x1="237.67" x2="237.67" y1="136" y2="144"/><line style="stroke:#181818;stroke-width:1.0;" x1="234.67" x2="234.67" y1="136" y2="144"/><line style="stroke:#181818;stroke-width:1.0;" x1="233.67" x2="241.67" y1="140" y2="140"/></g><!--link votes to sessions--><g id="link_votes_sessions"><path codeLine="65" d="M102,75.92 C102,57.77 102,59.17 102,59.17 C102,59.17 467.81,59.17 662.74,59.17 " fill="none" id="votes-sessions" style="stroke:#181818;stroke-width:1.0;"/><line style="stroke:#181818;stroke-width:1.0;" x1="102" x2="108" y1="85.92" y2="93.92"/><line style="stroke:#181818;stroke-width:1.0;" x1="102" x2="96" y1="85.92" y2="93.92"/><line style="stroke:#181818;stroke-width:1.0;" x1="102" x2="102" y1="85.92" y2="93.92"/><ellipse cx="102" cy="79.92" fill="none" rx="4" ry="4" style="stroke:#181818;stroke-width:1.0;"/><line style="stroke:#181818;stroke-width:1.0;" x1="666.74" x2="666.74" y1="55.17" y2="63.17"/><line style="stroke:#181818;stroke-width:1.0;" x1="663.74" x2="663.74" y1="55.17" y2="63.17"/><line style="stroke:#181818;stroke-width:1.0;" x1="662.74" x2="670.74" y1="59.17" y2="59.17"/></g><!--SRC=[bL9DJ-mm3BptLrXSEAq4LuGuSk7o1E9SUHllrjesYM8lKC7-TzBlzhKLa5Cpuwazurn3vko1Z-U0oiucEHk2Z4DMK28djXu3bb2m9QqyWGkQkwIWWu8w27pC5Gm7oXhnDOmIwmm9URYzkPdX0UsfnnEFsGcF15UlGW6UoRihG85plAKXtk0pWNZ8AclLmD91zM5p1smLxk__FJqy3F1kDtpM2eibtO5eO7iS2CFY2wpILLAyKpvKgReJsGMRe-HaKeyYxowO1S-IeYav2lVE5GryIIuJhoya4jCQxKeBh3ZkcB-PNlMK1KADO- -hHhx0KUTuYH-fdFSbjmFCIL4Ckf2CvQcF8L5gkaSrBtjpIfi5CQU9_Nf5yvNtKOqfF4vJQ0LRx2IZkh1WqQPq4bNNlszySRlTrrVxyDQ8VZ-pgJEqXarCzOzhS_7HeBhDyN_mhY4-iF_zz87B8kB9b9sPpji6ksgr-VNlrrENRzeRMlwmlcx-jlNAw3DYzB7a1aUNv1i0]--></g></svg>